<svg data-v-423bf9ae="" xmlns="http://www.w3.org/2000/svg" viewBox="0 0 565.77258973181 60" class="font"><!----><!----><!----><g data-v-423bf9ae="" id="f013e21f-b88a-4060-b487-a6c2ecf3db47" fill="white" transform="matrix(5.830903811703725,0,0,5.830903811703725,-7.113707371193641,-12.6530621930969)"><path d="M1.23 12.29L1.23 10.92L3.57 10.92L3.57 4.82L1.22 4.82L1.22 3.78L1.22 3.78Q1.86 3.71 2.79 3.40L2.79 3.40L2.79 3.40Q3.72 3.09 4.44 2.69L4.44 2.69L5.25 2.69L5.25 10.92L7.39 10.92L7.39 12.29L1.23 12.29ZM11.68 12.46L11.68 12.46Q10.57 12.46 9.84 12.01L9.84 12.01L9.84 12.01Q9.11 11.56 8.73 10.48L8.73 10.48L8.73 10.48Q8.34 9.39 8.34 7.49L8.34 7.49L8.34 7.49Q8.34 5.59 8.73 4.50L8.73 4.50L8.73 4.50Q9.11 3.42 9.84 2.97L9.84 2.97L9.84 2.97Q10.57 2.52 11.68 2.52L11.68 2.52L11.68 2.52Q12.77 2.52 13.50 2.97L13.50 2.97L13.50 2.97Q14.22 3.42 14.62 4.51L14.62 4.51L14.62 4.51Q15.01 5.60 15.01 7.49L15.01 7.49L15.01 7.49Q15.01 9.38 14.62 10.47L14.62 10.47L14.62 10.47Q14.22 11.56 13.50 12.01L13.50 12.01L13.50 12.01Q12.77 12.46 11.68 12.46L11.68 12.46ZM11.68 11.09L11.68 11.09Q12.32 11.09 12.67 10.74L12.67 10.74L12.67 10.74Q13.02 10.39 13.15 9.70L13.15 9.70L13.15 9.70Q13.27 9.00 13.27 7.85L13.27 7.85L13.27 7.17L13.27 7.17Q13.27 6.01 13.15 5.31L13.15 5.31L13.15 5.31Q13.02 4.61 12.67 4.25L12.67 4.25L12.67 4.25Q12.32 3.89 11.68 3.89L11.68 3.89L11.68 3.89Q11.03 3.89 10.68 4.24L10.68 4.24L10.68 4.24Q10.33 4.59 10.21 5.28L10.21 5.28L10.21 5.28Q10.08 5.98 10.08 7.13L10.08 7.13L10.08 7.81L10.08 7.81Q10.08 8.97 10.21 9.67L10.21 9.67L10.21 9.67Q10.33 10.37 10.68 10.73L10.68 10.73L10.68 10.73Q11.03 11.09 11.68 11.09L11.68 11.09ZM19.46 12.46L19.46 12.46Q18.35 12.46 17.63 12.01L17.63 12.01L17.63 12.01Q16.90 11.56 16.51 10.48L16.51 10.48L16.51 10.48Q16.13 9.39 16.13 7.49L16.13 7.49L16.13 7.49Q16.13 5.59 16.51 4.50L16.51 4.50L16.51 4.50Q16.90 3.42 17.63 2.97L17.63 2.97L17.63 2.97Q18.35 2.52 19.46 2.52L19.46 2.52L19.46 2.52Q20.55 2.52 21.28 2.97L21.28 2.97L21.28 2.97Q22.01 3.42 22.40 4.51L22.40 4.51L22.40 4.51Q22.79 5.60 22.79 7.49L22.79 7.49L22.79 7.49Q22.79 9.38 22.40 10.47L22.40 10.47L22.40 10.47Q22.01 11.56 21.28 12.01L21.28 12.01L21.28 12.01Q20.55 12.46 19.46 12.46L19.46 12.46ZM19.46 11.09L19.46 11.09Q20.10 11.09 20.45 10.74L20.45 10.74L20.45 10.74Q20.80 10.39 20.93 9.70L20.93 9.70L20.93 9.70Q21.06 9.00 21.06 7.85L21.06 7.85L21.06 7.17L21.06 7.17Q21.06 6.01 20.93 5.31L20.93 5.31L20.93 5.31Q20.80 4.61 20.45 4.25L20.45 4.25L20.45 4.25Q20.10 3.89 19.46 3.89L19.46 3.89L19.46 3.89Q18.82 3.89 18.47 4.24L18.47 4.24L18.47 4.24Q18.12 4.59 17.99 5.28L17.99 5.28L17.99 5.28Q17.86 5.98 17.86 7.13L17.86 7.13L17.86 7.81L17.86 7.81Q17.86 8.97 17.99 9.67L17.99 9.67L17.99 9.67Q18.12 10.37 18.47 10.73L18.47 10.73L18.47 10.73Q18.82 11.09 19.46 11.09L19.46 11.09ZM27.24 12.46L27.24 12.46Q26.14 12.46 25.41 12.01L25.41 12.01L25.41 12.01Q24.68 11.56 24.30 10.48L24.30 10.48L24.30 10.48Q23.91 9.39 23.91 7.49L23.91 7.49L23.91 7.49Q23.91 5.59 24.30 4.50L24.30 4.50L24.30 4.50Q24.68 3.42 25.41 2.97L25.41 2.97L25.41 2.97Q26.14 2.52 27.24 2.52L27.24 2.52L27.24 2.52Q28.34 2.52 29.06 2.97L29.06 2.97L29.06 2.97Q29.79 3.42 30.18 4.51L30.18 4.51L30.18 4.51Q30.58 5.60 30.58 7.49L30.58 7.49L30.58 7.49Q30.58 9.38 30.18 10.47L30.18 10.47L30.18 10.47Q29.79 11.56 29.06 12.01L29.06 12.01L29.06 12.01Q28.34 12.46 27.24 12.46L27.24 12.46ZM27.24 11.09L27.24 11.09Q27.89 11.09 28.24 10.74L28.24 10.74L28.24 10.74Q28.59 10.39 28.71 9.70L28.71 9.70L28.71 9.70Q28.84 9.00 28.84 7.85L28.84 7.85L28.84 7.17L28.84 7.17Q28.84 6.01 28.71 5.31L28.71 5.31L28.71 5.31Q28.59 4.61 28.24 4.25L28.24 4.25L28.24 4.25Q27.89 3.89 27.24 3.89L27.24 3.89L27.24 3.89Q26.60 3.89 26.25 4.24L26.25 4.24L26.25 4.24Q25.90 4.59 25.77 5.28L25.77 5.28L25.77 5.28Q25.65 5.98 25.65 7.13L25.65 7.13L25.65 7.81L25.65 7.81Q25.65 8.97 25.77 9.67L25.77 9.67L25.77 9.67Q25.90 10.37 26.25 10.73L26.25 10.73L26.25 10.73Q26.60 11.09 27.24 11.09L27.24 11.09ZM33.40 12.29L31.19 4.93L32.93 4.93L33.84 8.34L33.84 8.34Q33.92 8.64 34.08 9.37L34.08 9.37L34.08 9.37Q34.23 10.09 34.27 10.33L34.27 10.33L34.34 10.33L34.34 10.33Q34.38 10.09 34.51 9.49L34.51 9.49L34.51 9.49Q34.64 8.89 34.76 8.36L34.76 8.36L35.59 4.93L37.39 4.93L38.28 8.37L38.28 8.37Q38.40 8.92 38.53 9.51L38.53 9.51L38.53 9.51Q38.65 10.11 38.70 10.33L38.70 10.33L38.77 10.33L38.77 10.33Q38.81 10.12 38.93 9.54L38.93 9.54L38.93 9.54Q39.06 8.96 39.20 8.37L39.20 8.37L40.08 4.93L41.69 4.93L39.49 12.29L37.73 12.29L36.82 8.47L36.82 8.47Q36.72 8.09 36.62 7.57L36.62 7.57L36.62 7.57Q36.51 7.06 36.48 6.89L36.48 6.89L36.41 6.89L36.41 6.89Q36.39 7.04 36.30 7.56L36.30 7.56L36.30 7.56Q36.20 8.08 36.11 8.46L36.11 8.46L35.17 12.29L33.40 12.29ZM45.91 12.46L45.91 12.46Q44.09 12.46 43.18 11.52L43.18 11.52L43.18 11.52Q42.28 10.58 42.28 8.61L42.28 8.61L42.28 8.61Q42.28 6.64 43.18 5.70L43.18 5.70L43.18 5.70Q44.09 4.76 45.91 4.76L45.91 4.76L45.91 4.76Q47.73 4.76 48.63 5.70L48.63 5.70L48.63 5.70Q49.53 6.64 49.53 8.61L49.53 8.61L49.53 8.61Q49.53 10.58 48.63 11.52L48.63 11.52L48.63 11.52Q47.73 12.46 45.91 12.46L45.91 12.46ZM45.91 11.09L45.91 11.09Q46.90 11.09 47.35 10.51L47.35 10.51L47.35 10.51Q47.80 9.93 47.80 8.71L47.80 8.71L47.80 8.51L47.80 8.51Q47.80 7.29 47.35 6.71L47.35 6.71L47.35 6.71Q46.90 6.13 45.91 6.13L45.91 6.13L45.91 6.13Q44.90 6.13 44.46 6.71L44.46 6.71L44.46 6.71Q44.02 7.29 44.02 8.51L44.02 8.51L44.02 8.71L44.02 8.71Q44.02 9.93 44.46 10.51L44.46 10.51L44.46 10.51Q44.90 11.09 45.91 11.09L45.91 11.09ZM51.03 12.29L51.03 4.93L52.42 4.93L52.57 6.09L52.67 6.09L52.67 6.09Q53.17 4.76 54.32 4.76L54.32 4.76L54.32 4.76Q54.57 4.76 54.77 4.81L54.77 4.81L54.77 4.81Q54.96 4.86 55.02 4.89L55.02 4.89L55.02 6.47L54.49 6.47L54.49 6.47Q52.71 6.47 52.71 8.46L52.71 8.46L52.71 12.29L51.03 12.29ZM58.67 12.46L58.67 12.46Q57.27 12.46 56.50 11.51L56.50 11.51L56.50 11.51Q55.73 10.56 55.73 8.60L55.73 8.60L55.73 8.60Q55.73 6.69 56.50 5.73L56.50 5.73L56.50 5.73Q57.27 4.76 58.56 4.76L58.56 4.76L58.56 4.76Q60.10 4.76 60.77 5.78L60.77 5.78L60.86 5.78L60.86 2.17L62.54 2.17L62.54 12.29L61.15 12.29L61.01 11.31L60.93 11.31L60.93 11.31Q60.56 11.87 59.98 12.17L59.98 12.17L59.98 12.17Q59.39 12.46 58.67 12.46L58.67 12.46ZM59.18 11.02L59.18 11.02Q60.05 11.02 60.45 10.44L60.45 10.44L60.45 10.44Q60.86 9.86 60.86 8.71L60.86 8.71L60.86 8.54L60.86 8.54Q60.86 6.20 59.18 6.20L59.18 6.20L59.18 6.20Q58.25 6.20 57.86 6.75L57.86 6.75L57.86 6.75Q57.47 7.31 57.47 8.53L57.47 8.53L57.47 8.71L57.47 8.71Q57.47 9.91 57.86 10.46L57.86 10.46L57.86 10.46Q58.25 11.02 59.18 11.02L59.18 11.02ZM67.28 12.46L67.28 12.46Q65.76 12.46 64.92 11.83L64.92 11.83L64.92 11.83Q64.09 11.20 64.09 10.19L64.09 10.19L64.09 10.19Q64.09 10.07 64.10 10.02L64.10 10.02L64.10 10.02Q64.11 9.98 64.11 9.97L64.11 9.97L65.74 9.97L65.74 10.08L65.74 10.08Q65.76 10.63 66.21 10.88L66.21 10.88L66.21 10.88Q66.67 11.14 67.35 11.14L67.35 11.14L67.35 11.14Q67.97 11.14 68.40 10.94L68.40 10.94L68.40 10.94Q68.84 10.74 68.84 10.33L68.84 10.33L68.84 10.33Q68.84 10.01 68.60 9.81L68.60 9.81L68.60 9.81Q68.36 9.60 68.01 9.48L68.01 9.48L68.01 9.48Q67.66 9.37 67.02 9.21L67.02 9.21L67.02 9.21Q66.15 9.00 65.60 8.79L65.60 8.79L65.60 8.79Q65.04 8.58 64.65 8.13L64.65 8.13L64.65 8.13Q64.26 7.69 64.26 6.96L64.26 6.96L64.26 6.96Q64.26 5.91 65.13 5.33L65.13 5.33L65.13 5.33Q66.00 4.76 67.38 4.76L67.38 4.76L67.38 4.76Q68.24 4.76 68.91 5.01L68.91 5.01L68.91 5.01Q69.58 5.26 69.95 5.72L69.95 5.72L69.95 5.72Q70.32 6.17 70.32 6.76L70.32 6.76L70.31 7.07L68.67 7.07L68.67 7.01L68.67 7.01Q68.67 6.58 68.31 6.33L68.31 6.33L68.31 6.33Q67.96 6.09 67.28 6.09L67.28 6.09L67.28 6.09Q66.63 6.09 66.29 6.29L66.29 6.29L66.29 6.29Q65.95 6.50 65.95 6.82L65.95 6.82L65.95 6.82Q65.95 7.21 66.37 7.40L66.37 7.40L66.37 7.40Q66.78 7.59 67.63 7.77L67.63 7.77L67.63 7.77Q68.56 7.98 69.13 8.20L69.13 8.20L69.13 8.20Q69.69 8.41 70.11 8.88L70.11 8.88L70.11 8.88Q70.53 9.34 70.53 10.12L70.53 10.12L70.53 10.12Q70.53 11.34 69.66 11.90L69.66 11.90L69.66 11.90Q68.78 12.46 67.28 12.46L67.28 12.46ZM74.97 12.46L74.97 12.46Q73.23 12.46 72.39 11.52L72.39 11.52L72.39 11.52Q71.55 10.58 71.55 8.61L71.55 8.61L71.55 8.61Q71.55 6.64 72.40 5.70L72.40 5.70L72.40 5.70Q73.25 4.76 74.97 4.76L74.97 4.76L74.97 4.76Q76.47 4.76 77.28 5.50L77.28 5.50L77.28 5.50Q78.09 6.24 78.09 7.69L78.09 7.69L76.38 7.69L76.38 7.69Q76.38 6.90 76.03 6.51L76.03 6.51L76.03 6.51Q75.68 6.12 74.94 6.12L74.94 6.12L74.94 6.12Q74.07 6.12 73.67 6.71L73.67 6.71L73.67 6.71Q73.26 7.31 73.26 8.54L73.26 8.54L73.26 8.71L73.26 8.71Q73.26 9.94 73.67 10.52L73.67 10.52L73.67 10.52Q74.09 11.10 75.01 11.10L75.01 11.10L75.01 11.10Q75.73 11.10 76.10 10.70L76.10 10.70L76.10 10.70Q76.47 10.29 76.47 9.53L76.47 9.53L78.09 9.53L78.09 9.53Q78.09 10.92 77.27 11.69L77.27 11.69L77.27 11.69Q76.45 12.46 74.97 12.46L74.97 12.46ZM79.53 12.29L79.53 2.17L81.21 2.17L81.21 12.29L79.53 12.29ZM85.50 12.46L85.50 12.46Q83.12 12.46 83.12 9.90L83.12 9.90L83.12 4.93L84.80 4.93L84.80 9.60L84.80 9.60Q84.80 10.36 85.14 10.68L85.14 10.68L85.14 10.68Q85.48 11.00 86.16 11.00L86.16 11.00L86.16 11.00Q86.86 11.00 87.33 10.50L87.33 10.50L87.33 10.50Q87.81 10.00 87.81 9.21L87.81 9.21L87.81 4.93L89.49 4.93L89.49 12.29L88.10 12.29L87.96 11.31L87.86 11.31L87.86 11.31Q87.46 11.86 86.86 12.16L86.86 12.16L86.86 12.16Q86.27 12.46 85.50 12.46L85.50 12.46ZM95.31 12.46L95.31 12.46Q94.60 12.46 94.01 12.17L94.01 12.17L94.01 12.17Q93.42 11.87 93.06 11.31L93.06 11.31L92.97 11.31L92.83 12.29L91.45 12.29L91.45 2.17L93.13 2.17L93.13 5.78L93.21 5.78L93.21 5.78Q93.88 4.76 95.42 4.76L95.42 4.76L95.42 4.76Q96.71 4.76 97.48 5.73L97.48 5.73L97.48 5.73Q98.25 6.69 98.25 8.60L98.25 8.60L98.25 8.60Q98.25 10.56 97.48 11.51L97.48 11.51L97.48 11.51Q96.71 12.46 95.31 12.46L95.31 12.46ZM94.81 11.02L94.81 11.02Q95.73 11.02 96.12 10.46L96.12 10.46L96.12 10.46Q96.52 9.91 96.52 8.71L96.52 8.71L96.52 8.53L96.52 8.53Q96.52 7.31 96.12 6.75L96.12 6.75L96.12 6.75Q95.73 6.20 94.81 6.20L94.81 6.20L94.81 6.20Q93.13 6.20 93.13 8.54L93.13 8.54L93.13 8.71L93.13 8.71Q93.13 9.86 93.53 10.44L93.53 10.44L93.53 10.44Q93.94 11.02 94.81 11.02L94.81 11.02Z"></path></g><!----><!----></svg>